<?xml version="1.0" encoding="UTF-8"?>
<svg xmlns="http://www.w3.org/2000/svg" xmlns:xlink="http://www.w3.org/1999/xlink" viewBox="0,0,256,256" width="1024px" height="1024px">
  <g fill="#3082d4" fill-rule="nonzero" stroke="none" stroke-width="1" stroke-linecap="butt" stroke-linejoin="miter" stroke-miterlimit="10" stroke-dasharray="" stroke-dashoffset="0" font-family="none" font-weight="none" font-size="none" text-anchor="none" style="mix-blend-mode: normal">
    <g transform="scale(10.66667,10.66667)">
      <path d="M21.075,21.978c-1.446,-0.625 -3.231,-1.211 -5.302,-1.556c-0.569,-0.095 -0.973,-0.638 -0.875,-1.206c0.059,-0.339 0.089,-0.694 0.089,-1.065c0,-2.349 -1.257,-4.257 -2.801,-4.257c-1.555,0 -2.812,1.908 -2.812,4.257c0,0.353 0.029,0.699 0.085,1.03c0.095,0.571 -0.309,1.116 -0.881,1.206c-2.157,0.339 -4.01,0.955 -5.512,1.602c-0.915,0.132 -1.654,-0.915 -1.114,-1.753c0.132,-0.199 0.265,-0.408 0.386,-0.618c0.32,-0.507 0.64,-1.015 0.948,-1.544c1.412,-2.327 2.823,-4.853 4.191,-7.566c0.033,-0.066 0.066,-0.144 0.099,-0.21c0.287,-0.562 0.562,-1.125 0.827,-1.687c0.132,-0.265 0.265,-0.541 0.386,-0.806c0.21,0.132 0.419,0.286 0.662,0.441c1.103,0.684 2.14,1.07 2.89,1.268c-0.551,-0.419 -1.158,-0.915 -1.776,-1.533c-0.464,-0.463 -0.872,-0.926 -1.225,-1.378c0.518,-1.147 1.015,-2.272 1.456,-3.364c0.077,-0.176 0.154,-0.353 0.221,-0.518c0.386,-0.959 1.721,-0.959 2.118,-0.011c0.187,0.452 0.375,0.915 0.574,1.379c0.165,0.408 0.353,0.816 0.54,1.235c0.121,0.286 0.254,0.584 0.386,0.882c0.265,0.596 0.54,1.191 0.827,1.798c0.265,0.585 0.551,1.169 0.849,1.764c0,0.022 0.011,0.033 0.022,0.055c0.706,1.445 1.434,2.823 2.173,4.158c0.529,0.981 1.07,1.93 1.621,2.846c0.188,0.342 0.386,0.673 0.596,1.004c0.143,0.232 0.276,0.463 0.419,0.684h-0.012c-0.386,-0.209 -0.805,-0.408 -1.257,-0.585c-0.783,-0.309 -1.511,-0.496 -2.14,-0.607c0.86,0.43 1.853,0.993 2.89,1.743c0.64,0.474 1.213,0.937 1.698,1.401c0.287,0.794 -0.408,1.654 -1.246,1.511z"></path>
    </g>
  </g>
</svg>
